<svg xmlns="http://www.w3.org/2000/svg" viewBox="0 0 232.08 409.64"><defs><style>.cls-1{fill:#fff;}.cls-2{fill:#f7a400;}</style></defs><title>Fichier 4</title><g id="Calque_2" data-name="Calque 2"><g id="Calque_1-2" data-name="Calque 1"><path class="cls-1" d="M167.91,197.08a7.24,7.24,0,0,0-7.79,6.63c-.06.81-.13,1.62-.2,2.42a7.22,7.22,0,0,0,6.55,7.85q.33,0,.66,0a7.23,7.23,0,0,0,7.19-6.59c.08-.85.15-1.7.22-2.55A7.24,7.24,0,0,0,167.91,197.08Z"/><path class="cls-2" d="M74.09,72.64A20.78,20.78,0,1,0,94.88,93.42,20.8,20.8,0,0,0,74.09,72.64Zm0,27.1a6.32,6.32,0,1,1,6.33-6.32A6.33,6.33,0,0,1,74.09,99.74Z"/><path class="cls-2" d="M163,72.64a20.78,20.78,0,1,0,20.79,20.78A20.8,20.8,0,0,0,163,72.64Zm0,27.1a6.32,6.32,0,1,1,6.33-6.32A6.33,6.33,0,0,1,163,99.74Z"/><path class="cls-1" d="M212.22,311.09a7.24,7.24,0,0,0,0-14.47H160.51c30.19-22.2,49.71-67.21,49.71-117.22a185.34,185.34,0,0,0-4.8-42.25,95,95,0,0,0,9.2-41.06,96.13,96.13,0,0,0-2.49-21.71,7.33,7.33,0,0,0-.31-1.37.58.58,0,0,0,0-.14,96.53,96.53,0,0,0-33.43-52,96.12,96.12,0,0,0-119.62,0,96.5,96.5,0,0,0-33.5,52.22c0,.12-.07.25-.1.38a96.08,96.08,0,0,0-2.69,22.62,95,95,0,0,0,9.2,41.06,184.78,184.78,0,0,0-4.8,42.25c0,50,19.52,95,49.71,117.22H24.83a7.24,7.24,0,0,0,0,14.47M118.52,14.46a81.47,81.47,0,0,1,59.89,26.05,51.59,51.59,0,0,0-52,12.75,52.44,52.44,0,0,0-7.9,10.14A51.62,51.62,0,0,0,58.64,40.51,81.45,81.45,0,0,1,118.52,14.46ZM39.13,77.07A37.2,37.2,0,0,1,111.29,89.8V121a7.23,7.23,0,0,0,14.46,0V89.8a37.2,37.2,0,0,1,72.17-12.7,81.65,81.65,0,0,1-152.2,56c0-.07-.07-.15-.11-.22a80.73,80.73,0,0,1-8.72-36.74A81.65,81.65,0,0,1,39.13,77.07ZM56.86,249.74C46.68,229.29,41.29,205,41.29,179.4a175.7,175.7,0,0,1,1.65-24,97,97,0,0,0,18.61,18c0,2-.06,4-.06,5.94,0,33.85,5.28,65.86,14.88,90.13A123.23,123.23,0,0,0,82.62,283C72.62,275,63.73,263.52,56.86,249.74ZM154.46,283c7.7-14.16,13.74-33.17,17.41-55.95a7.23,7.23,0,1,0-14.27-2.3c-6.75,41.81-22.64,71.36-38.69,71.87h-.8C98.45,296,76.57,249,76,182.24a96.17,96.17,0,0,0,85.12,0c0,1.16,0,2.32-.05,3.46a7.24,7.24,0,0,0,7.08,7.38h.15a7.23,7.23,0,0,0,7.23-7.09c0-2.17.07-4.39.07-6.59,0-1.92,0-3.91-.06-5.94a96.94,96.94,0,0,0,18.6-18,174.12,174.12,0,0,1,1.65,24c0,25.57-5.38,49.89-15.57,70.34C173.33,263.51,164.45,274.92,154.46,283Z"/><path class="cls-1" d="M85.44,391.36V393H77.53v4.51H84.9v1.59H77.53V404h8v1.59H75.64V391.36Z"/><path class="cls-1" d="M93.13,408.17a3.42,3.42,0,0,1-.63.85,2.13,2.13,0,0,1-.77.47,2.9,2.9,0,0,1-1,.15,3.81,3.81,0,0,1-.59,0,2.34,2.34,0,0,1-.58-.14v-1.55l.49.16a1.42,1.42,0,0,0,.5.08,1.37,1.37,0,0,0,.84-.24,2.07,2.07,0,0,0,.55-.69l.7-1.73-4.07-10.21h1.9l3,8.4h0l2.88-8.4h1.79L93.72,406.9A9.65,9.65,0,0,1,93.13,408.17Z"/><path class="cls-1" d="M109.08,404.89a4.63,4.63,0,0,1-2.9.88,5.38,5.38,0,0,1-2.14-.4,4.24,4.24,0,0,1-1.52-1.11,4.7,4.7,0,0,1-.92-1.71,8.15,8.15,0,0,1-.35-2.17,6.12,6.12,0,0,1,.36-2.14,5.18,5.18,0,0,1,1-1.69,4.43,4.43,0,0,1,1.53-1.11,4.61,4.61,0,0,1,1.94-.4,4.18,4.18,0,0,1,2.27.57,4.25,4.25,0,0,1,1.45,1.44,5.53,5.53,0,0,1,.76,1.9,8.52,8.52,0,0,1,.17,2H103a4.13,4.13,0,0,0,.16,1.28,2.79,2.79,0,0,0,1.59,1.82,3.41,3.41,0,0,0,1.45.28,3,3,0,0,0,1.76-.5,2.43,2.43,0,0,0,.9-1.51h1.67A4.11,4.11,0,0,1,109.08,404.89Zm-.41-6.59a3,3,0,0,0-.61-.93,3.08,3.08,0,0,0-.92-.61,3.09,3.09,0,0,0-2.34,0,2.77,2.77,0,0,0-.91.62,3,3,0,0,0-.59.93,3.22,3.22,0,0,0-.26,1.12h5.9A3.59,3.59,0,0,0,108.67,398.3Z"/><path class="cls-1" d="M123,405.55,121,397.38h0l-2.07,8.17H117l-3.29-10.27h1.86l2.33,8.4h0l2.06-8.4h1.85l2.14,8.4h0l2.3-8.4h1.75l-3.28,10.27Z"/><path class="cls-1" d="M139.17,404.89a4.61,4.61,0,0,1-2.9.88,5.32,5.32,0,0,1-2.13-.4,4.16,4.16,0,0,1-1.52-1.11,4.87,4.87,0,0,1-.93-1.71,8.57,8.57,0,0,1-.35-2.17,6.12,6.12,0,0,1,.36-2.14,5.21,5.21,0,0,1,1-1.69,4.43,4.43,0,0,1,1.53-1.11,4.57,4.57,0,0,1,1.93-.4,4.19,4.19,0,0,1,2.28.57,4.43,4.43,0,0,1,1.45,1.44,5.72,5.72,0,0,1,.75,1.9,8,8,0,0,1,.17,2h-7.69a4.13,4.13,0,0,0,.16,1.28,2.87,2.87,0,0,0,1.59,1.82,3.44,3.44,0,0,0,1.45.28,2.93,2.93,0,0,0,1.76-.5,2.35,2.35,0,0,0,.9-1.51h1.67A4.07,4.07,0,0,1,139.17,404.89Zm-.41-6.59a2.84,2.84,0,0,0-.61-.93,3,3,0,0,0-.91-.61,3.12,3.12,0,0,0-2.35,0,2.73,2.73,0,0,0-.9.62,3.23,3.23,0,0,0-.6.93,3.46,3.46,0,0,0-.26,1.12H139A3.12,3.12,0,0,0,138.76,398.3Z"/><path class="cls-1" d="M152.64,405.77a1.47,1.47,0,0,1-1-.37,1.59,1.59,0,0,1-.39-1.2,4,4,0,0,1-1.62,1.2,5.42,5.42,0,0,1-2,.37,5.62,5.62,0,0,1-1.32-.15,3,3,0,0,1-1.08-.5,2.45,2.45,0,0,1-.73-.89,3.46,3.46,0,0,1,0-2.75,2.76,2.76,0,0,1,.78-.91,3.54,3.54,0,0,1,1.11-.52q.63-.18,1.29-.3t1.32-.21a7.5,7.5,0,0,0,1.1-.2,1.66,1.66,0,0,0,.75-.38.89.89,0,0,0,.28-.72,1.65,1.65,0,0,0-.21-.89,1.32,1.32,0,0,0-.53-.52,2.22,2.22,0,0,0-.74-.24,5.49,5.49,0,0,0-.8-.06,3.59,3.59,0,0,0-1.79.41,1.74,1.74,0,0,0-.78,1.54H144.6a3.64,3.64,0,0,1,.39-1.61,3.09,3.09,0,0,1,1-1.07,3.94,3.94,0,0,1,1.37-.58A7.14,7.14,0,0,1,149,395a9.15,9.15,0,0,1,1.38.1,3.36,3.36,0,0,1,1.24.41,2.3,2.3,0,0,1,.89.86,2.71,2.71,0,0,1,.34,1.45v5.29a3.76,3.76,0,0,0,.07.87c0,.19.2.28.47.28a1.57,1.57,0,0,0,.51-.1v1.31A2.39,2.39,0,0,1,152.64,405.77Zm-2.36-5.18c-.35.07-.71.13-1.09.18l-1.14.16a4.43,4.43,0,0,0-1,.29,2,2,0,0,0-.75.56,1.62,1.62,0,0,0-.28,1,1.28,1.28,0,0,0,.17.7,1.49,1.49,0,0,0,.43.47,1.76,1.76,0,0,0,.64.26,3.65,3.65,0,0,0,.74.08,4,4,0,0,0,1.43-.23,3,3,0,0,0,1-.58,2.27,2.27,0,0,0,.55-.75,1.91,1.91,0,0,0,.18-.77v-1.72A2.19,2.19,0,0,1,150.28,400.59Z"/><path class="cls-1" d="M159.14,395.28v2.16h0a4.49,4.49,0,0,1,1.51-1.84A3.73,3.73,0,0,1,163,395v1.79a4.91,4.91,0,0,0-1.73.27,2.78,2.78,0,0,0-1.15.82,3.52,3.52,0,0,0-.64,1.3,7.19,7.19,0,0,0-.19,1.76v4.57h-1.69V395.28Z"/><path class="cls-2" d="M77.52,321.39a5.8,5.8,0,0,1,5.77,5.15l4.31,37.74a4.36,4.36,0,0,0,1.09,2.66,3.93,3.93,0,0,0,2.86.89,4.1,4.1,0,0,0,2.76-.79,4.53,4.53,0,0,0,1.31-2.23l7.8-33.32a14,14,0,0,1,4.9-8.33q3.65-2.81,10.2-2.81t10,2.81a14.44,14.44,0,0,1,4.68,8.33l7.39,33.32q.63,3,4.17,3a3.55,3.55,0,0,0,2.7-.89,4.53,4.53,0,0,0,1-2.66l5.05-37.85a5.8,5.8,0,0,1,5.76-5h.2a5.81,5.81,0,0,1,5.75,6.62l-5.21,36.9a15.72,15.72,0,0,1-4.37,9.22q-3.54,3.48-11,3.48-6.45,0-10-2.81t-4.79-8.54l-7.39-33.42a3,3,0,0,0-1.41-2.08,5.22,5.22,0,0,0-2.65-.63c-2.3,0-3.65.91-4.06,2.71l-7.81,33.42q-1.36,5.73-5,8.54t-10.2,2.81a19.84,19.84,0,0,1-6.51-.93,11.86,11.86,0,0,1-4.37-2.61,11.35,11.35,0,0,1-2.66-4,22.71,22.71,0,0,1-1.35-5.15L71.6,328a5.81,5.81,0,0,1,5.76-6.57Z"/><path class="cls-1" d="M30,379a30,30,0,1,1,30-30A30,30,0,0,1,30,379Zm0-48.88A18.91,18.91,0,1,0,48.88,349,18.93,18.93,0,0,0,30,330.07Z"/><path class="cls-1" d="M226.55,376.09h-38.2a5.54,5.54,0,0,1-5.53-5.53V327.08a5.53,5.53,0,0,1,11.06,0V365h32.67a5.53,5.53,0,0,1,0,11.06Z"/></g></g></svg>